<?xml version="1.0" encoding="UTF-8"?>
<svg id="Layer_1" xmlns="http://www.w3.org/2000/svg" version="1.1" viewBox="0 0 195 40">
  <!-- Generator: Adobe Illustrator 29.2.1, SVG Export Plug-In . SVG Version: 2.1.0 Build 116)  -->
  <defs>
    <style>
      .st0 {
        fill: #fff;
      }

      .st1 {
        fill: #384bff;
      }
    </style>
  </defs>
  <g>
    <path class="st1" d="M26.6,1c-4.8,8.7-9.5,17.4-14.3,26.2,6.5-5.5,13.1-11,19.6-16.5L26.6,1Z"/>
    <path class="st1" d="M12,28c-2.1,3.9-4.3,7.8-6.4,11.7,5,0,10.1,0,15.1,0,1.6-3.9,3.2-7.9,4.8-11.8-4.5,0-9,0-13.6,0Z"/>
    <path class="st1" d="M26.5,39.7c4.8-4.3,9.5-8.6,14.3-12.8,2.4,4.3,4.7,8.6,7.1,12.8h-21.4Z"/>
    <path class="st1" d="M32.3,11.3c-2.5,5-5,10-7.5,15,5.2,0,10.4,0,15.6,0-2.7-5-5.4-10.1-8.1-15.1Z"/>
  </g>
  <g>
    <path class="st0" d="M68.9,24.1h5.3l-9.8-21.7h-4.9l-9.6,21.7h5.2l2-4.7h10.1l2,4.7h-.3ZM58.5,15.6l3.4-8.4,3.4,8.4h-6.9,0Z"/>
    <rect class="st0" x="76.1" y="1" width="4.8" height="23.1"/>
    <rect class="st0" x="85.5" y="1" width="4.8" height="23.1"/>
    <path class="st0" d="M109,13.1c-.8-.5-1.6-.8-2.5-1s-1.8-.5-2.8-.7c-.9-.2-1.7-.5-2.5-.6-.8-.2-1.4-.5-1.8-.8s-.7-.8-.7-1.4,0-.9.5-1.3c.2-.3.7-.7,1.4-.9.6-.2,1.4-.3,2.4-.3s2,0,3,.5c1,.2,2.1.7,3.1,1.3l1.6-3.8c-1-.7-2.2-1.1-3.6-1.5s-2.6-.5-4-.5c-2.1,0-3.8.3-5.2.9s-2.4,1.4-3.1,2.4-1,2.2-1,3.4.2,2.1.7,2.9c.5.7,1,1.4,1.8,1.8.7.5,1.6.8,2.5,1.1s1.8.6,2.8.7c.9.2,1.7.5,2.5.6.8.2,1.4.5,1.8.8s.7.8.7,1.4,0,.8-.5,1.3c-.3.3-.7.6-1.4.8-.6.2-1.4.3-2.4.3s-2.6-.2-3.9-.7-2.4-.9-3.3-1.6l-1.7,3.8c.9.7,2.3,1.4,3.9,1.8s3.2.7,5,.7,3.8-.3,5.2-.9,2.4-1.5,3.1-2.4c.7-1,1-2.2,1-3.3s-.2-2.1-.7-2.9c-.5-.7-1-1.4-1.8-1.8h0Z"/>
    <path class="st0" d="M131.7,20.3c.7-1.3,1.1-2.8,1.1-4.6s-.3-3.2-1.1-4.6c-.7-1.3-1.7-2.3-3-3s-2.6-1-4.2-1-2.8.3-3.8.9c-.6.3-1,.8-1.5,1.3v-2h-4.6v22.7h4.8v-7.8c.3.5.8.8,1.4,1.1,1,.6,2.3.9,3.7.9s3-.3,4.2-1,2.3-1.7,3-3h0ZM127.3,18.2c-.3.7-.9,1.3-1.5,1.6s-1.4.6-2.2.6-1.5-.2-2.2-.6-1.1-.9-1.5-1.6c-.3-.7-.6-1.5-.6-2.5s.2-1.8.6-2.5c.3-.7.9-1.3,1.5-1.6s1.4-.6,2.2-.6,1.5.2,2.2.6,1.1.9,1.5,1.6c.3.7.6,1.5.6,2.5s-.2,1.7-.6,2.5Z"/>
    <path class="st0" d="M148.4,9c-1.4-1.1-3.4-1.8-6-1.8s-2.6.2-3.9.6-2.4.8-3.3,1.5l1.7,3.4c.6-.5,1.4-.8,2.2-1.1.8-.2,1.7-.5,2.6-.5s2.3.3,2.9.9c.7.6.9,1.4.9,2.4h-3.9c-1.7,0-3.1.2-4.1.7s-1.8,1-2.3,1.7-.7,1.6-.7,2.6.2,1.8.8,2.5c.5.8,1.3,1.4,2.2,1.8s2.1.7,3.3.7,2.6-.2,3.6-.8c.7-.3,1.1-.9,1.5-1.5v2.1h4.6v-9.5c0-2.5-.7-4.5-2.1-5.6h0ZM144.3,20.5c-.7.3-1.4.6-2.2.6s-1.5-.2-2-.6-.7-.8-.7-1.5.2-1,.7-1.4,1.3-.6,2.3-.6h3.3v1.7c-.3.7-.8,1.3-1.4,1.7h-.1,0Z"/>
    <path class="st0" d="M164.7,11.6h.6v-4.5c-1.6,0-2.9.3-4,.9-.7.3-1.3.9-1.7,1.6v-2.2h-4.6v16.7h4.8v-7.9c0-1.6.5-2.8,1.3-3.6s1.8-1.1,3.2-1.1.3,0,.6,0h-.2Z"/>
    <polygon class="st0" points="180.6 24.1 186.4 24.1 178.8 14.5 185.8 7.4 180.1 7.4 173 14.1 173 1 168.2 1 168.2 24.1 173 24.1 173 19.9 175.3 17.6 180.6 24.1"/>
    <polygon class="st0" points="69.9 34.5 71.7 34.5 71.7 39.2 72.7 39.2 72.7 34.5 74.6 34.5 74.6 33.7 69.9 33.7 69.9 34.5"/>
    <polygon class="st0" points="79.2 36.8 81.9 36.8 81.9 36 79.2 36 79.2 34.5 82.3 34.5 82.3 33.7 78.1 33.7 78.1 39.2 82.4 39.2 82.4 38.3 79.2 38.3 79.2 36.8"/>
    <path class="st0" d="M87.5,35c.2-.2.3-.3.6-.5.2,0,.5,0,.8,0s.6,0,.8,0c.2,0,.5.2.7.5l.7-.6c-.2-.3-.6-.6-.9-.7s-.8-.2-1.3-.2-.8,0-1.1.2c-.3,0-.7.3-.9.6s-.5.6-.6.9-.2.7-.2,1.1,0,.8.2,1.1c0,.3.3.7.6.9s.6.5.9.6.8.2,1.1.2.9,0,1.3-.2c.3,0,.7-.3.9-.7l-.7-.7c-.2.2-.5.3-.7.5-.2,0-.6,0-.8,0s-.6,0-.8,0c-.2,0-.5-.2-.6-.5-.2-.2-.3-.3-.5-.6,0-.2,0-.5,0-.8s0-.6,0-.8c0-.2.2-.5.5-.6h0v.3Z"/>
    <polygon class="st0" points="98.7 35.9 95.9 35.9 95.9 33.7 94.9 33.7 94.9 39.2 95.9 39.2 95.9 36.8 98.7 36.8 98.7 39.2 99.7 39.2 99.7 33.7 98.7 33.7 98.7 35.9"/>
    <polygon class="st0" points="107.9 37.4 105 33.7 104 33.7 104 39.2 105.1 39.2 105.1 35.5 108.2 39.2 109 39.2 109 33.7 107.9 33.7 107.9 37.4"/>
    <path class="st0" d="M118,34.4c-.2-.2-.6-.5-.9-.6s-.8-.2-1.1-.2-.8,0-1.1.2c-.3,0-.7.3-.9.6-.2.2-.5.6-.6.9s-.2.7-.2,1.1,0,.8.2,1.1c0,.3.3.7.6.9s.6.5.9.6.8.2,1.1.2.8,0,1.1-.2.7-.3.9-.6c.2-.2.5-.6.6-.9s.2-.7.2-1.1,0-.8-.2-1.1c0-.3-.3-.7-.6-.9ZM117.7,37.2c0,.2-.2.5-.5.6-.2.2-.3.3-.6.5-.2,0-.5,0-.8,0s-.6,0-.8,0c-.2,0-.5-.2-.6-.5-.2-.2-.3-.3-.5-.6,0-.2,0-.5,0-.8s0-.6,0-.8.2-.5.5-.6c.2-.2.3-.3.6-.5.2,0,.5,0,.8,0s.6,0,.8,0c.2,0,.5.2.6.5.2.2.3.3.5.6,0,.2,0,.5,0,.8s0,.6,0,.8Z"/>
    <polygon class="st0" points="123.8 33.7 122.7 33.7 122.7 39.2 126.8 39.2 126.8 38.3 123.8 38.3 123.8 33.7"/>
    <path class="st0" d="M135,34.4c-.2-.2-.6-.5-.9-.6s-.8-.2-1.1-.2-.8,0-1.1.2c-.3,0-.7.3-.9.6-.2.2-.5.6-.6.9s-.2.7-.2,1.1,0,.8.2,1.1c.1.3.3.7.6.9s.6.5.9.6.8.2,1.1.2.8,0,1.1-.2.7-.3.9-.6c.2-.2.5-.6.6-.9s.2-.7.2-1.1,0-.8-.2-1.1c-.1-.3-.3-.7-.6-.9ZM134.7,37.2c0,.2-.2.5-.5.6-.2.2-.3.3-.6.5-.2,0-.5,0-.8,0s-.6,0-.8,0c-.2,0-.5-.2-.6-.5-.2-.2-.3-.3-.5-.6,0-.2-.1-.5-.1-.8s0-.6.1-.8.2-.5.5-.6c.2-.2.3-.3.6-.5.2,0,.5,0,.8,0s.6,0,.8,0c.2,0,.5.2.6.5.2.2.3.3.5.6,0,.2.1.5.1.8s0,.6-.1.8Z"/>
    <path class="st0" d="M141,35c.2-.2.3-.3.7-.5.2,0,.5,0,.8,0s.6,0,.8,0c.2,0,.5.2.7.5l.7-.7c-.2-.3-.6-.6-.9-.7s-.8-.2-1.3-.2-.8,0-1.1.2c-.3,0-.7.3-.9.6s-.5.6-.6.9-.2.7-.2,1.1,0,.8.2,1.1c.1.3.3.7.6.9s.6.5.9.6.8.2,1.1.2.8,0,1.1-.2c.3,0,.7-.3,1-.6v-2.2h-.9v1.7s-.2,0-.3,0c-.2,0-.6,0-.8,0s-.6,0-.8,0c-.2,0-.5-.2-.7-.5s-.3-.3-.5-.6c0-.2-.1-.5-.1-.8s0-.6.1-.8c0-.2.2-.5.5-.6v.5Z"/>
    <rect class="st0" x="148.7" y="33.7" width="1" height="5.5"/>
    <polygon class="st0" points="155.1 36.8 157.7 36.8 157.7 36 155.1 36 155.1 34.5 158.1 34.5 158.1 33.7 154.1 33.7 154.1 39.2 158.2 39.2 158.2 38.3 155.1 38.3 155.1 36.8"/>
    <path class="st0" d="M165.5,36.5c-.2,0-.5-.2-.7-.2s-.5,0-.7-.2c-.2,0-.5,0-.7,0-.2,0-.3,0-.5-.2-.1,0-.2-.2-.2-.5s0-.2.1-.3c0,0,.2-.2.3-.2h1.5c.2,0,.6.2.8.3l.3-.8c-.2,0-.6-.2-.8-.3-.3,0-.7,0-1,0s-.9,0-1.3.2c-.3,0-.6.3-.7.6s-.2.6-.2.8,0,.6.2.7.2.3.5.5c.2,0,.5.2.7.2s.5,0,.7.2.5,0,.7,0,.3,0,.5.2c.1,0,.2.2.2.5s0,.2-.1.3c0,0-.2.2-.3.2h-.7c-.2,0-.7,0-1-.2-.3,0-.6-.2-.8-.5l-.3.8c.2.2.6.3.9.5.3,0,.8.2,1.3.2s.9,0,1.3-.2.6-.3.7-.6.2-.6.2-.8,0-.6-.2-.7c-.1-.2-.2-.3-.5-.5h-.2Z"/>
  </g>
</svg>