<?xml version="1.0" encoding="UTF-8"?>
<svg id="Layer_1" xmlns="http://www.w3.org/2000/svg" version="1.1" viewBox="0 0 165 34">
  <!-- Generator: Adobe Illustrator 29.2.1, SVG Export Plug-In . SVG Version: 2.1.0 Build 116)  -->
  <defs>
    <style>
      .st0 {
        fill: #384bff;
      }
    </style>
  </defs>
  <g>
    <path d="M59.1,20.4h4.6L55.2,1.5h-4.3l-8.4,18.9h4.5l1.7-4.1h8.8l1.7,4.1h-.1ZM50,13l3-7.3,3,7.3h-6Z"/>
    <rect x="65.3" y=".3" width="4.2" height="20.1"/>
    <rect x="73.5" y=".3" width="4.2" height="20.1"/>
    <path d="M94,10.8c-.7-.4-1.4-.7-2.2-.9s-1.6-.4-2.4-.6c-.8-.2-1.5-.4-2.2-.5-.7-.2-1.2-.4-1.6-.7s-.6-.7-.6-1.2,0-.8.4-1.1c.2-.3.6-.6,1.2-.8.5-.2,1.2-.3,2.1-.3s1.7,0,2.6.4c.9.2,1.8.6,2.7,1.1l1.4-3.3c-.9-.6-1.9-1-3.1-1.3s-2.3-.4-3.5-.4c-1.8,0-3.3.3-4.5.8s-2.1,1.2-2.7,2.1c-.6.9-.9,1.9-.9,3s.2,1.8.6,2.5c.4.6.9,1.2,1.6,1.6.6.4,1.4.7,2.2,1,.8.3,1.6.5,2.4.6.8.2,1.5.4,2.2.5.7.2,1.2.4,1.6.7s.6.7.6,1.2,0,.7-.4,1.1c-.3.3-.6.5-1.2.7-.5.2-1.2.3-2.1.3s-2.3-.2-3.4-.6-2.1-.8-2.9-1.4l-1.5,3.3c.8.6,2,1.2,3.4,1.6s2.8.6,4.4.6,3.3-.3,4.5-.8,2.1-1.3,2.7-2.1c.6-.9.9-1.9.9-2.9s-.2-1.8-.6-2.5c-.4-.6-.9-1.2-1.6-1.6h0Z"/>
    <path d="M113.8,17.1c.6-1.1,1-2.4,1-4s-.3-2.8-1-4c-.6-1.1-1.5-2-2.6-2.6s-2.3-.9-3.7-.9-2.4.3-3.3.8c-.5.3-.9.7-1.3,1.1v-1.7h-4v19.8h4.2v-6.8c.3.4.7.7,1.2,1,.9.5,2,.8,3.2.8s2.6-.3,3.7-.9,2-1.5,2.6-2.6h0ZM110,15.3c-.3.6-.8,1.1-1.3,1.4s-1.2.5-1.9.5-1.3-.2-1.9-.5-1-.8-1.3-1.4c-.3-.6-.5-1.3-.5-2.2s.2-1.6.5-2.2c.3-.6.8-1.1,1.3-1.4s1.2-.5,1.9-.5,1.3.2,1.9.5,1,.8,1.3,1.4c.3.6.5,1.3.5,2.2s-.2,1.5-.5,2.2Z"/>
    <path d="M128.4,7.2c-1.2-1-3-1.6-5.2-1.6s-2.3.2-3.4.5-2.1.7-2.9,1.3l1.5,3c.5-.4,1.2-.7,1.9-1,.7-.2,1.5-.4,2.3-.4s2,.3,2.5.8c.6.5.8,1.2.8,2.1h-3.4c-1.5,0-2.7.2-3.6.6-.9.4-1.6.9-2,1.5s-.6,1.4-.6,2.3.2,1.6.7,2.2c.4.7,1.1,1.2,1.9,1.6s1.8.6,2.9.6,2.3-.2,3.1-.7c.6-.3,1-.8,1.3-1.3v1.8h4v-8.3c0-2.2-.6-3.9-1.8-4.9h0ZM124.8,17.3c-.6.3-1.2.5-1.9.5s-1.3-.2-1.7-.5-.6-.7-.6-1.3.2-.9.6-1.2,1.1-.5,2-.5h2.9v1.5c-.3.6-.7,1.1-1.2,1.5h-.1Z"/>
    <path d="M142.6,9.5h.5v-3.9c-1.4,0-2.5.3-3.5.8-.6.3-1.1.8-1.5,1.4v-1.9h-4v14.6h4.2v-6.9c0-1.4.4-2.4,1.1-3.1.7-.7,1.6-1,2.8-1s.3,0,.5,0h-.1Z"/>
    <polygon points="156.4 20.4 161.5 20.4 154.9 12 161 5.8 156 5.8 149.8 11.7 149.8 .3 145.6 .3 145.6 20.4 149.8 20.4 149.8 16.7 151.8 14.7 156.4 20.4"/>
    <polygon points="59.9 29.5 61.5 29.5 61.5 33.6 62.4 33.6 62.4 29.5 64 29.5 64 28.8 59.9 28.8 59.9 29.5"/>
    <polygon points="68 31.5 70.4 31.5 70.4 30.8 68 30.8 68 29.5 70.7 29.5 70.7 28.8 67.1 28.8 67.1 33.6 70.8 33.6 70.8 32.8 68 32.8 68 31.5"/>
    <path d="M75.3,29.9c.2-.2.3-.3.5-.4.2,0,.4-.1.7-.1s.5,0,.7.1c.2,0,.4.2.6.4l.6-.5c-.2-.3-.5-.5-.8-.6s-.7-.2-1.1-.2-.7,0-1,.2c-.3.1-.6.3-.8.5s-.4.5-.5.8-.2.6-.2,1,0,.7.2,1c0,.3.3.6.5.8s.5.4.8.5.7.2,1,.2.8,0,1.1-.2c.3,0,.6-.3.8-.6l-.6-.6c-.2.2-.4.3-.6.4-.2,0-.5,0-.7,0s-.5,0-.7,0c-.2,0-.4-.2-.5-.4-.2-.2-.3-.3-.4-.5,0-.2,0-.4,0-.7s0-.5,0-.7c0-.2.2-.4.4-.5h0Z"/>
    <polygon points="85 30.7 82.6 30.7 82.6 28.8 81.7 28.8 81.7 33.6 82.6 33.6 82.6 31.5 85 31.5 85 33.6 85.9 33.6 85.9 28.8 85 28.8 85 30.7"/>
    <polygon points="93.1 32 90.5 28.8 89.7 28.8 89.7 33.6 90.6 33.6 90.6 30.3 93.3 33.6 94 33.6 94 28.8 93.1 28.8 93.1 32"/>
    <path d="M101.9,29.4c-.2-.2-.5-.4-.8-.5s-.7-.2-1-.2-.7,0-1,.2c-.3.1-.6.3-.8.5-.2.2-.4.5-.5.8s-.2.6-.2,1,0,.7.2,1c0,.3.3.6.5.8s.5.4.8.5.7.2,1,.2.7,0,1-.2.6-.3.8-.5c.2-.2.4-.5.5-.8s.2-.6.2-1,0-.7-.2-1c0-.3-.3-.6-.5-.8ZM101.6,31.8c0,.2-.2.4-.4.5-.2.2-.3.3-.5.4-.2,0-.4,0-.7,0s-.5,0-.7,0c-.2,0-.4-.2-.5-.4-.2-.2-.3-.3-.4-.5,0-.2,0-.4,0-.7s0-.5,0-.7.2-.4.4-.5c.2-.2.3-.3.5-.4.2,0,.4-.1.7-.1s.5,0,.7.1c.2,0,.4.2.5.4.2.2.3.3.4.5,0,.2,0,.4,0,.7s0,.5,0,.7Z"/>
    <polygon points="106.9 28.8 106 28.8 106 33.6 109.5 33.6 109.5 32.8 106.9 32.8 106.9 28.8"/>
    <path d="M116.7,29.4c-.2-.2-.5-.4-.8-.5s-.7-.2-1-.2-.7,0-1,.2c-.3.1-.6.3-.8.5-.2.2-.4.5-.5.8s-.2.6-.2,1,0,.7.2,1c0,.3.3.6.5.8s.5.4.8.5.7.2,1,.2.7,0,1-.2.6-.3.8-.5c.2-.2.4-.5.5-.8s.2-.6.2-1,0-.7-.2-1c0-.3-.3-.6-.5-.8ZM116.4,31.8c0,.2-.2.4-.4.5-.2.2-.3.3-.5.4-.2,0-.4,0-.7,0s-.5,0-.7,0c-.2,0-.4-.2-.5-.4-.2-.2-.3-.3-.4-.5,0-.2,0-.4,0-.7s0-.5,0-.7.2-.4.4-.5c.2-.2.3-.3.5-.4.2,0,.4-.1.7-.1s.5,0,.7.1c.2,0,.4.2.5.4.2.2.3.3.4.5,0,.2,0,.4,0,.7s0,.5,0,.7Z"/>
    <path d="M121.9,29.9c.2-.2.3-.3.6-.4.2,0,.4-.1.7-.1s.5,0,.7.1c.2,0,.4.2.6.4l.6-.6c-.2-.3-.5-.5-.8-.6s-.7-.2-1.1-.2-.7,0-1,.2c-.3.1-.6.3-.8.5s-.4.5-.5.8-.2.6-.2,1,0,.7.2,1c0,.3.3.6.5.8s.5.4.8.5.7.2,1,.2.7,0,1-.2c.3,0,.6-.3.9-.5v-1.9h-.8v1.5s-.2,0-.3,0c-.2,0-.5,0-.7,0s-.5,0-.7,0c-.2,0-.4-.2-.6-.4s-.3-.3-.4-.5c0-.2,0-.4,0-.7s0-.5,0-.7c0-.2.2-.4.4-.5v.2Z"/>
    <rect x="128.6" y="28.8" width=".9" height="4.8"/>
    <polygon points="134.2 31.5 136.5 31.5 136.5 30.8 134.2 30.8 134.2 29.5 136.8 29.5 136.8 28.8 133.3 28.8 133.3 33.6 136.9 33.6 136.9 32.8 134.2 32.8 134.2 31.5"/>
    <path d="M143.3,31.2c-.2,0-.4-.2-.6-.2s-.4-.1-.6-.2c-.2,0-.4,0-.6-.1-.2,0-.3-.1-.4-.2-.1,0-.2-.2-.2-.4s0-.2.1-.3c0,0,.2-.2.3-.2h1.3c.2,0,.5.2.7.3l.3-.7c-.2-.1-.5-.2-.7-.3-.3,0-.6-.1-.9-.1s-.8,0-1.1.2c-.3.1-.5.3-.6.5s-.2.5-.2.7,0,.5.2.6.2.3.4.4c.2,0,.4.2.6.2s.4.1.6.2.4,0,.6.1.3.1.4.2c.1,0,.2.2.2.4s0,.2-.1.3c0,0-.2.2-.3.2h-.6c-.2,0-.6,0-.9-.2-.3,0-.5-.2-.7-.4l-.3.7c.2.2.5.3.8.4.3,0,.7.2,1.1.2s.8,0,1.1-.2.5-.3.6-.5.2-.5.2-.7,0-.5-.2-.6c-.1-.2-.2-.3-.4-.4h-.1Z"/>
  </g>
  <g>
    <path class="st0" d="M22.3,0c-4.2,7.6-8.3,15.3-12.5,22.9,5.7-4.8,11.4-9.6,17.2-14.4L22.3,0Z"/>
    <path class="st0" d="M9.5,23.6c-1.9,3.4-3.8,6.8-5.6,10.3,4.4,0,8.8,0,13.2,0,1.4-3.4,2.8-6.9,4.2-10.3-3.9,0-7.9,0-11.8,0Z"/>
    <path class="st0" d="M22.1,33.8c4.2-3.7,8.3-7.5,12.5-11.2,2.1,3.7,4.1,7.5,6.2,11.2h-18.7Z"/>
    <path class="st0" d="M27.3,9c-2.2,4.4-4.4,8.8-6.6,13.2,4.6,0,9.1,0,13.7,0-2.4-4.4-4.7-8.8-7.1-13.2Z"/>
  </g>
</svg>